<?xml version="1.0" ?><svg viewBox="0 0 60 60" xmlns="http://www.w3.org/2000/svg"><title/><g data-name="Layer 1" id="Layer_1"><path d="M26,53a1.001,1.001,0,0,0,1-1V31a1,1,0,0,0-2,0V52A1.001,1.001,0,0,0,26,53Z"/><path d="M35,53a1.001,1.001,0,0,0,1-1V31a1,1,0,0,0-2,0V52A1.001,1.001,0,0,0,35,53Z"/><path d="M11,54a4.18113,4.18113,0,0,0,4.3335,4h21.333A4.18113,4.18113,0,0,0,41,54V25H11ZM32,31a3,3,0,0,1,6,0V52a3,3,0,0,1-6,0Zm-9,0a3,3,0,0,1,6,0V52a3,3,0,0,1-6,0Zm-9,0a3,3,0,0,1,6,0V52a3,3,0,0,1-6,0Z"/><path d="M17,53a1.001,1.001,0,0,0,1-1V31a1,1,0,0,0-2,0V52A1.001,1.001,0,0,0,17,53Z"/><path d="M11,23H41V19a1,1,0,0,0-1-1H12a1,1,0,0,0-1,1Z"/><path d="M48.75,29H43v2h2.75A2.13865,2.13865,0,0,1,48,33V48a2.13865,2.13865,0,0,1-2.25,2H43v2h5.75A1.14711,1.14711,0,0,0,50,51V30A1.14711,1.14711,0,0,0,48.75,29Z"/><path d="M39,10a.99974.99974,0,0,1-1-1,4.35891,4.35891,0,0,0-2.04443-3.01562,3.41157,3.41157,0,0,0-3.5083-.08984A1.0001,1.0001,0,0,1,31,5a2.38173,2.38173,0,0,0-1.25244-2.085,6.13875,6.13875,0,0,0-3.165-.80078C24.8457,2.11426,23,2.77539,23,4a1.0001,1.0001,0,0,1-1.44727.89453,3.41546,3.41546,0,0,0-3.33643-.251A2.83993,2.83993,0,0,0,17,7a.99944.99944,0,0,1-1.31641.94824,3.30657,3.30657,0,0,0-3.32227.55859,2.00268,2.00268,0,0,0-.4126,2.17676.99927.99927,0,0,1-.63232,1.26465,2.83265,2.83265,0,0,0-2.11426,2.02734A2.28079,2.28079,0,0,0,10.34454,16H41.52643a4.82116,4.82116,0,0,0,.41351-4.21289A2.88207,2.88207,0,0,0,39,10ZM22,11c-1.626,0-3,.916-3,2a1,1,0,0,1-2,0c0-2.20605,2.24316-4,5-4a1,1,0,0,1,0,2Zm6-3a1.00069,1.00069,0,0,1-.97656-.78418A2.11529,2.11529,0,0,0,26,7a1,1,0,0,1,0-2c1.73828,0,3,.84082,3,2A.99974.99974,0,0,1,28,8Zm6,6a.99974.99974,0,0,1-1-1,1.001,1.001,0,0,0-1-1,1,1,0,0,1,0-2,3.00328,3.00328,0,0,1,3,3A.99974.99974,0,0,1,34,14Z"/></g></svg>