<?xml version="1.0" ?><svg id="Layer_1" style="enable-background:new 0 0 512 512;" version="1.1" viewBox="0 0 512 512" xml:space="preserve" xmlns="http://www.w3.org/2000/svg" xmlns:xlink="http://www.w3.org/1999/xlink"><style type="text/css">
	.st0{fill-rule:evenodd;clip-rule:evenodd;}
</style><g><path class="st0" d="M286.5,262.8c0-19-15.4-34.4-34.4-34.4H112.9v68.8h139.2C271.1,297.2,286.5,281.7,286.5,262.8z"/><path class="st0" d="M131.4,18.1h249.2c3.4,0,6.1-2.7,6.1-6.1v0c0-3.4-2.7-6.1-6.1-6.1H131.4c-3.4,0-6.1,2.7-6.1,6.1v0   C125.3,15.4,128,18.1,131.4,18.1z"/><path class="st0" d="M323.8,491.7c13.6-10.6,22.3-26.8,22.3-45V66.9c0-17.1-7.7-32.5-20-43.1H132.9c-12.3,10.6-20,26-20,43.1v149.3   h139.2c25.7,0,46.5,20.9,46.5,46.5s-20.9,46.5-46.5,46.5H112.9v137.4c0,20,10.5,37.6,26.5,48c1.1-1.8,3-3,5.2-3H323.8z"/><path class="st0" d="M172.9,506h166.2c10.2,0,19.8-3,28.2-8.2H144.7C153.1,503,162.7,506,172.9,506z"/><path class="st0" d="M335.4,491.7h11.5c13.6-10.6,22.3-26.8,22.3-45V66.9c0-17.1-7.7-32.5-20-43.1h-11.6c12.3,10.6,20,26,20,43.1   v379.8C357.6,464.9,348.9,481.1,335.4,491.7z"/><path class="st0" d="M379.1,23.9h-23.4c12.3,10.6,20,26,20,43.1v379.8c0,18.2-8.7,34.4-22.3,45h13.9c2.2,0,4.2,1.2,5.2,3   c16-10.4,26.5-28,26.5-48V66.9C399.1,49.8,391.4,34.5,379.1,23.9z"/></g></svg>