<?xml version="1.0" encoding="iso-8859-1"?>
<!-- Generator: Adobe Illustrator 19.0.0, SVG Export Plug-In . SVG Version: 6.00 Build 0)  -->
<svg version="1.1" id="Capa_1" xmlns="http://www.w3.org/2000/svg" xmlns:xlink="http://www.w3.org/1999/xlink" x="0px" y="0px"
	 viewBox="0 0 512.002 512.002" style="enable-background:new 0 0 512.002 512.002;" xml:space="preserve">
<g>
	<g>
		<path d="M377.876,21.469c-2.024-9.394-10.583-15.775-25.437-18.969c-17.517-3.765-45.041-3.248-71.836,1.35
			c-15.07,2.586-40.166,8.289-53.393,19.022c-38.682-9.219-92.699,14.676-127.82,41.562c-10.82,3.189-20.426,8.433-28.332,15.608
			c-22.185,20.136-34.979,49.876-35.102,81.595c-0.102,26.124,8.674,49.961,24.216,66.191c0.049,2.219,0.207,4.438,0.491,6.651
			c3.573,27.828,24.722,49.052,51.71,53.174c1.074,2.825,2.77,5.394,5.063,7.627c0.5,0.486,1.048,0.919,1.638,1.292
			c2.954,1.865,5.627,3.603,8.072,5.19c11.656,7.572,19.356,12.576,28.676,12.577c0.001,0.001,0.001,0.001,0.003,0.001
			c12.95,0,23.778-10.047,41.798-27.805c26.374-25.987,37.344-53.15,29.346-72.662c-2.966-7.237-8.35-12.486-15.164-15.114
			c0.696-18.299-2.085-32.33-8.427-42.425c4.663-5.865,8.007-11.89,10.031-18.031c1.297,0.074,2.608,0.118,3.936,0.118
			c13.091,0,27.413-3.664,38.5-11.756c17.714,13.627,46.274,21.23,69.271,21.23c8.053,0,15.429-0.933,21.409-2.864
			c14.64-4.729,17.798-14.149,18.378-19.345c2.64-23.666-20.484-42.703-37.195-53.218c10.503-5.03,20.965-11.072,28.615-16.723
			C367.041,47.829,380.935,35.664,377.876,21.469z M77.33,181.228c-5.156,6.215-9.182,12.911-12.049,19.868
			c-6.077-11.135-9.384-24.731-9.327-39.381c0.102-26.119,10.505-50.489,28.543-66.861c12.095-10.979,31.089-15.879,52.113-13.434
			c19.666,2.282,38.686,10.797,49.639,22.222c6.825,7.119,9.975,14.497,9.455,22.08c-0.049,0.331-0.08,0.661-0.096,0.99
			c-0.579,5.239-2.9,10.576-6.966,15.99c-11.086-5.676-25.606-6.068-43.313-1.128c-12.072,3.368-22.943,7.524-32.617,12.42
			c-0.455-3.891-0.651-7.836-0.556-11.743c0.135-5.522-4.232-10.106-9.753-10.241c-0.083-0.002-0.166-0.003-0.249-0.003
			c-5.409,0-9.86,4.318-9.992,9.756c-0.191,7.864,0.545,15.874,2.134,23.526C87.809,170.122,82.137,175.433,77.33,181.228z
			 M113.904,267.612c-17.499-3.351-31.057-17.408-33.404-35.68c-2.166-16.878,5.484-37.337,29.786-53.481
			c0.545-0.285,1.052-0.621,1.526-0.992c10.082-6.441,22.897-12.154,38.896-16.619c14.851-4.145,25.58-3.579,31.888,1.678
			c6.76,5.635,9.904,17.896,9.215,35.681c-5.493,1.517-11.062,4.304-16.463,8.277c-5.267,3.875-21.296,15.669-35.682,29.094
			C126.378,247.973,117.966,258.411,113.904,267.612z M208.465,221.459c2.854,6.962,0.826,25.502-24.878,50.829
			c-12.244,12.065-22.784,22.052-27.761,22.051c-3.395,0-9.43-3.921-17.783-9.348c-2.148-1.394-4.465-2.9-6.988-4.504
			c-0.054-0.173-0.069-0.41-0.042-0.801c0.191-2.772,3.801-18.557,56.19-57.101c5.02-3.693,10.027-5.728,14.1-5.728
			C204.853,216.857,207.195,218.362,208.465,221.459z M248.891,106.088c-7.527,8.893-21.587,12.802-33.562,12.299
			c-1.373-10.158-6.355-19.945-14.641-28.587c-13.976-14.576-36.483-24.999-60.421-28.063C168.769,46.232,201,36.575,223.685,42.581
			c12.434,3.294,20.998,11.038,26.183,23.674C256.96,83.541,256.632,96.944,248.891,106.088z M345.035,123.46
			c-0.277,0.549-2.948,2.818-10.95,3.896c-18.818,2.542-48.613-3.714-64.904-15.633c5.114-9.239,8.114-22.458,3.384-40.605
			c6.795,1.166,16.66,4.166,27.226,8.962c0.338,0.177,0.685,0.334,1.04,0.472c8.786,4.069,17.995,9.37,26.275,15.884
			C339.338,106.059,345.869,115.911,345.035,123.46z M344.442,39.658c-10.119,7.474-26.519,16.053-39.608,20.84
			c-13.669-5.912-28.879-10.434-40.287-9.668c-4.064-7.162-9.254-13.137-15.453-17.817c16.391-7.006,47.19-13.194,76.407-13.019
			c21.751,0.146,30.599,4.001,32.652,5.797C357.645,27.179,355.263,31.665,344.442,39.658z"/>
	</g>
</g>
<g>
	<g>
		<path d="M114.539,105.442c-4.556-3.119-10.781-1.958-13.902,2.601c-0.197,0.288-0.394,0.587-0.585,0.894
			c-2.935,4.678-1.523,10.849,3.155,13.787c1.652,1.036,3.49,1.53,5.306,1.53c3.327,0,6.581-1.659,8.479-4.686
			c0.048-0.076,0.098-0.152,0.147-0.224C120.261,114.785,119.096,108.562,114.539,105.442z"/>
	</g>
</g>
<g>
	<g>
		<path d="M451.833,284.174c-0.049-2.219-0.207-4.439-0.491-6.652c-3.573-27.827-24.722-49.051-51.71-53.173
			c-1.074-2.825-2.771-5.394-5.063-7.627c-0.5-0.486-1.048-0.92-1.638-1.292c-2.956-1.866-5.63-3.605-8.076-5.193
			c-11.654-7.571-19.354-12.574-28.674-12.574c-12.953,0-23.779,10.047-41.802,27.805c-26.372,25.986-37.342,53.149-29.345,72.659
			c2.966,7.238,8.349,12.487,15.164,15.115c-0.696,18.299,2.085,32.33,8.427,42.426c-4.663,5.865-8.007,11.889-10.031,18.03
			c-14.094-0.806-30.243,2.715-42.455,11.633c-23.92-18.392-67.604-25.808-90.66-18.359c-14.641,4.728-17.799,14.15-18.379,19.344
			c-2.641,23.667,20.485,42.705,37.194,53.219c-10.505,5.03-20.967,11.072-28.614,16.723c-10.716,7.916-24.61,20.082-21.551,34.277
			c2.024,9.393,10.583,15.776,25.438,18.969c7.781,1.673,17.537,2.5,28.328,2.5c13.499,0,28.617-1.295,43.508-3.851
			c15.063-2.583,40.143-8.284,53.374-19.009c5.777,1.378,11.891,2.025,18.238,2.025c36.166,0,79.737-20.73,109.615-43.607
			c10.814-3.19,20.415-8.429,28.316-15.601c22.185-20.136,34.979-49.875,35.103-81.594
			C476.15,324.242,467.375,300.404,451.833,284.174z M398.1,244.39c17.498,3.351,31.056,17.406,33.403,35.679
			c2.167,16.878-5.485,37.337-29.786,53.482c-0.546,0.285-1.053,0.621-1.527,0.993c-10.083,6.44-22.896,12.153-38.894,16.618
			c-14.851,4.145-25.58,3.579-31.888-1.678c-6.76-5.636-9.904-17.897-9.216-35.681c5.492-1.517,11.061-4.304,16.463-8.277
			c5.267-3.874,21.295-15.666,35.683-29.094C385.626,264.03,394.038,253.592,398.1,244.39z M303.54,290.541
			c-2.854-6.962-0.826-25.502,24.876-50.828c12.245-12.064,22.784-22.051,27.763-22.051c3.394,0,9.427,3.92,17.778,9.345
			c2.148,1.395,4.467,2.902,6.992,4.508c0.054,0.173,0.069,0.411,0.042,0.802c-0.191,2.773-3.801,18.558-56.19,57.1
			c-5.021,3.692-10.026,5.727-14.097,5.727h-0.001C307.152,295.144,304.809,293.638,303.54,290.541z M166.968,388.542
			c0.277-0.549,2.949-2.818,10.953-3.897c18.819-2.534,48.612,3.716,64.9,15.634c-5.113,9.239-8.113,22.457-3.384,40.602
			c-6.8-1.167-16.673-4.171-27.247-8.971c-0.337-0.176-0.684-0.334-1.039-0.471c-8.779-4.067-17.98-9.364-26.253-15.872
			C172.665,405.944,166.133,396.09,166.968,388.542z M187.861,492.012c-0.452,0-0.908-0.002-1.359-0.005
			c-21.752-0.146-30.6-4.001-32.653-5.797c0.51-1.388,2.892-5.873,13.715-13.868c10.112-7.471,26.508-16.049,39.601-20.837
			c12.654,5.474,26.639,9.766,37.698,9.766c0.887,0,1.748-0.039,2.596-0.096c4.065,7.162,9.255,13.138,15.456,17.818
			C246.783,485.898,216.689,492.012,187.861,492.012z M288.319,469.42c-12.434-3.293-20.998-11.037-26.183-23.674
			c-7.092-17.286-6.764-30.688,0.977-39.833c7.527-8.893,21.587-12.801,33.561-12.3c1.373,10.159,6.356,19.946,14.642,28.587
			c13.976,14.577,36.483,24.999,60.42,28.064C343.233,465.77,311,475.428,288.319,469.42z M427.505,417.148
			c-12.096,10.977-31.091,15.876-52.112,13.434c-19.665-2.282-38.686-10.797-49.639-22.221c-6.828-7.122-9.978-14.503-9.456-22.088
			c0.047-0.322,0.078-0.643,0.094-0.961c0.574-5.246,2.895-10.589,6.965-16.011c5.935,3.039,12.851,4.569,20.718,4.569
			c6.828,0,14.371-1.147,22.599-3.443c12.071-3.369,22.942-7.525,32.616-12.42c0.455,3.891,0.651,7.834,0.556,11.74
			c-0.135,5.522,4.232,10.107,9.753,10.241c0.083,0.002,0.166,0.003,0.249,0.003c5.409,0,9.859-4.318,9.992-9.756
			c0.191-7.862-0.545-15.871-2.135-23.524c6.486-4.832,12.159-10.144,16.967-15.94c5.156-6.215,9.182-12.911,12.048-19.867
			c6.077,11.135,9.384,24.733,9.327,39.382C455.946,376.407,445.543,400.777,427.505,417.148z"/>
	</g>
</g>
<g>
	<g>
		<path d="M408.857,389.318c-4.655-2.968-10.839-1.602-13.809,3.055c-0.063,0.098-0.123,0.193-0.186,0.285
			c-3.121,4.558-1.956,10.781,2.601,13.902c1.728,1.183,3.694,1.75,5.641,1.75c3.188,0,6.322-1.521,8.26-4.351
			c0.183-0.268,0.365-0.547,0.546-0.832C414.881,398.47,413.514,392.288,408.857,389.318z"/>
	</g>
</g>
<g>
</g>
<g>
</g>
<g>
</g>
<g>
</g>
<g>
</g>
<g>
</g>
<g>
</g>
<g>
</g>
<g>
</g>
<g>
</g>
<g>
</g>
<g>
</g>
<g>
</g>
<g>
</g>
<g>
</g>
</svg>
