<?xml version="1.0" encoding="iso-8859-1"?>
<!-- Generator: Adobe Illustrator 19.0.0, SVG Export Plug-In . SVG Version: 6.00 Build 0)  -->
<svg version="1.1" id="Capa_1" xmlns="http://www.w3.org/2000/svg" xmlns:xlink="http://www.w3.org/1999/xlink" x="0px" y="0px"
	 viewBox="0 0 512 512" style="enable-background:new 0 0 512 512;" xml:space="preserve">
<g>
	<g>
		<g>
			<path d="M512,202.667c0-5.896-4.771-10.667-10.667-10.667H10.667C4.771,192,0,196.771,0,202.667
				c0,102.471,63.198,190.355,152.621,227.01c-2.013,1.939-3.288,4.637-3.288,7.656c0,5.896,4.771,10.667,10.667,10.667h192
				c5.896,0,10.667-4.771,10.667-10.667c0-3.02-1.275-5.717-3.288-7.656C448.802,393.022,512,305.138,512,202.667z M147.5,368.177
				c-2.052,3.063-5.427,4.719-8.865,4.719c-2.042,0-4.104-0.583-5.938-1.813c-29.323-19.677-53.146-46.75-68.875-78.292
				c-2.635-5.271-0.49-11.677,4.781-14.302c5.313-2.656,11.698-0.479,14.302,4.781c14.083,28.24,35.417,52.479,61.688,70.104
				C149.479,356.656,150.781,363.281,147.5,368.177z"/>
			<path d="M128,160c0,5.896,4.771,10.667,10.667,10.667c5.896,0,10.667-4.771,10.667-10.667c0-13.208-3.625-20.385-6.542-26.146
				c-2.469-4.875-4.25-8.396-4.25-16.521s1.781-11.646,4.25-16.521c2.917-5.76,6.542-12.938,6.542-26.146
				c0-5.896-4.771-10.667-10.667-10.667C132.771,64,128,68.771,128,74.667c0,8.125-1.781,11.646-4.25,16.521
				c-2.917,5.76-6.542,12.938-6.542,26.146c0,13.208,3.625,20.385,6.542,26.146C126.219,148.354,128,151.875,128,160z"/>
			<path d="M256,160c0,5.896,4.771,10.667,10.667,10.667c5.896,0,10.667-4.771,10.667-10.667c0-13.208-3.625-20.385-6.542-26.146
				c-2.469-4.875-4.25-8.396-4.25-16.521s1.781-11.646,4.25-16.521c2.917-5.76,6.542-12.938,6.542-26.146
				c0-5.896-4.771-10.667-10.667-10.667C260.771,64,256,68.771,256,74.667c0,8.125-1.781,11.646-4.25,16.521
				c-2.917,5.76-6.542,12.938-6.542,26.146c0,13.208,3.625,20.385,6.542,26.146C254.219,148.354,256,151.875,256,160z"/>
			<path d="M384,160c0,5.896,4.771,10.667,10.667,10.667s10.667-4.771,10.667-10.667c0-13.208-3.625-20.385-6.542-26.146
				c-2.469-4.875-4.25-8.396-4.25-16.521s1.781-11.646,4.25-16.521c2.917-5.76,6.542-12.938,6.542-26.146
				c0-5.896-4.771-10.667-10.667-10.667S384,68.771,384,74.667c0,8.125-1.781,11.646-4.25,16.521
				c-2.917,5.76-6.542,12.938-6.542,26.146c0,13.208,3.625,20.385,6.542,26.146C382.219,148.354,384,151.875,384,160z"/>
		</g>
	</g>
</g>
<g>
</g>
<g>
</g>
<g>
</g>
<g>
</g>
<g>
</g>
<g>
</g>
<g>
</g>
<g>
</g>
<g>
</g>
<g>
</g>
<g>
</g>
<g>
</g>
<g>
</g>
<g>
</g>
<g>
</g>
</svg>
