<?xml version="1.0" ?><!DOCTYPE svg  PUBLIC '-//W3C//DTD SVG 1.1//EN'  'http://www.w3.org/Graphics/SVG/1.1/DTD/svg11.dtd'><svg enable-background="new 0 0 512 371.957" height="371.957px" id="Layer_1" version="1.1" viewBox="0 0 512 371.957" width="512px" xml:space="preserve" xmlns="http://www.w3.org/2000/svg" xmlns:xlink="http://www.w3.org/1999/xlink"><g id="meanicons_x5F_40"><path d="M455.575,190.88c6.567-16.16,10.28-33.86,10.28-52.399c0-77.022-62.477-139.437-139.512-139.437   c-77.016,0-139.482,62.414-139.482,139.437c0,18.539,3.719,36.239,10.281,52.399c-23.186,22.426-40.482,50.845-49.527,82.703   c-0.426-0.258-0.789-0.453-1.236-0.75c-1.939-1.742-4.266-4.984-6.516-9.818c-2.182-5.129-4.84-10.873-7.145-19.047l-1.932-6.531   l-2.4-7.424c-1.902-5.235-4.205-11.418-8.031-17.199c-1.758-2.895-3.6-5.734-5.471-8.426c-1.994-2.349-4.037-4.438-6.063-6.582   c-2.053-2.146-4.082-4.289-6.174-6.184c-2.129-1.591-4.266-3.189-6.357-4.781c-17-12.266-33.799-18.447-48.223-21.44   c-7.168-1.938-13.781-2.636-19.654-3.144c-2.908-0.297-5.629-0.592-8.145-0.842c-2.521,0-4.84,0.054-6.908,0.054   c-8.283,0.196-13.018,0.295-13.018,0.295s7.6,6.183,13.979,12.418c3.234,2.993,6.205,6.479,8.297,9.115   c2.045,2.599,3.416,4.295,3.416,4.295s-1.818,1.146-4.553,2.888c-2.645,1.644-6.053,3.984-9.297,6.879   c-6.516,5.432-11.842,10.864-11.842,10.864s3.342,0.606,9.191,1.599c1.447,0.25,3.037,0.494,4.787,0.805   c1.666,0.492,3.477,1.045,5.402,1.637c3.879,1.1,8.189,2.295,12.486,4.484c8.855,3.447,18.182,9.781,24.51,16.797l2.395,2.553   c0.566,0.896,0.938,1.797,1.439,2.639l1.521,2.4c0.039,0.689,0.123,1.342,0.289,1.896c0.5,0.983,0.521,2.59,0.895,5.03l1.061,9.613   c0.787,7.736,1.816,17.009,3.969,27.124c2.439,10.417,6.16,21.69,12.652,32.661c6.584,10.714,16.047,20.631,25.549,27.42   c4.721,3.432,9.523,6.818,14.055,8.918c4.521,2.145,9.295,4.887,13.334,6.083c3.803,1.296,7.41,2.538,10.916,3.683   c0.539,2.5,1.047,4.985,1.684,7.439h359.75c3.842-14.917,6.115-30.411,6.115-46.52C512.346,272.038,490.52,224.723,455.575,190.88z    M416.313,161.71c-26.69-14.752-57.321-23.229-89.969-23.229c-32.625,0-63.258,8.479-89.926,23.229   c-1.932-7.426-3.039-15.16-3.039-23.229c0-51.345,41.609-92.978,92.965-92.978c51.381,0,93,41.633,93,92.978   C419.346,146.55,418.229,154.284,416.313,161.71z"/></g><g id="Layer_1_1_"/></svg>