<?xml version="1.0" ?><!DOCTYPE svg  PUBLIC '-//W3C//DTD SVG 1.1//EN'  'http://www.w3.org/Graphics/SVG/1.1/DTD/svg11.dtd'><svg enable-background="new 0 0 141.732 141.732" height="141.732px" id="Livello_1" version="1.1" viewBox="0 0 141.732 141.732" width="141.732px" xml:space="preserve" xmlns="http://www.w3.org/2000/svg" xmlns:xlink="http://www.w3.org/1999/xlink"><g id="Livello_116"><path d="M63.927,137.498v-82.96c0.016-0.286,0.022-0.579,0.022-0.864c0-5.035-2.165-9.453-5.43-11.977h0.014   c-3.133-2.27-5.173-5.969-5.173-10.145c0-0.348,0.015-0.687,0.042-1.021h-0.01V8.947h-0.028V8.896   c0.272-0.23,0.447-0.57,0.447-0.957c0-0.008-0.001-0.021-0.001-0.027h0.001V6.701h-0.005c-0.027-0.441-0.291-0.824-0.666-1.02   V2.807h-0.002c0-0.008,0.001-0.021,0.001-0.027c0-0.684-0.556-1.243-1.24-1.243c-0.012,0-0.021,0.004-0.029,0.004V1.537h-9.805   v0.004c-0.012,0-0.021-0.004-0.031-0.004c-0.687,0-1.242,0.561-1.242,1.242c0,0.008,0.002,0.021,0.002,0.027h-0.002v2.875   c-0.375,0.191-0.637,0.574-0.666,1.02h-0.004v1.211h0.001c0,0.012-0.001,0.021-0.001,0.027c0,0.445,0.235,0.836,0.587,1.056v1.456   v20.082h-0.008c0.026,0.337,0.042,0.676,0.042,1.021c0,4.02-1.89,7.594-4.824,9.883c-3.463,2.463-5.787,7.018-5.787,12.235   c0,0.398,0.016,0.801,0.042,1.191v82.441c-0.021,0.138-0.042,0.274-0.042,0.416c0,1.367,1.106,2.473,2.472,2.473h28.875   c1.364,0,2.472-1.104,2.472-2.473C63.95,137.646,63.935,137.572,63.927,137.498 M111.599,78.599c0-2.729-0.351-5.344-0.986-7.785   H75.258c-0.638,2.441-0.986,5.059-0.986,7.785c0,12.582,7.364,22.926,16.799,24.141v33.719h-11.2c-1.03,0-1.866,0.84-1.866,1.867   c0,1.031,0.836,1.867,1.866,1.867h26.132c1.03,0,1.866-0.836,1.866-1.867c0-1.027-0.836-1.867-1.866-1.867h-11.2V102.74   C104.234,101.525,111.599,91.182,111.599,78.599"/></g><g id="Livello_1_1_"/></svg>