<?xml version="1.0" ?><svg baseProfile="tiny" height="24px" version="1.2" viewBox="0 0 24 24" width="24px" xml:space="preserve" xmlns="http://www.w3.org/2000/svg" xmlns:xlink="http://www.w3.org/1999/xlink"><g id="Layer_1"><path d="M17.568,9.432c0-2.55-0.906-5.592-0.944-5.72C16.496,3.289,16.107,3,15.666,3H8.334c-0.441,0-0.83,0.289-0.958,0.712   c-0.038,0.128-0.944,3.17-0.944,5.72c0,2.735,1.984,5.011,4.587,5.477C11.016,14.939,11,14.968,11,15v4h-1c-0.553,0-1,0.447-1,1   s0.447,1,1,1h4c0.553,0,1-0.447,1-1s-0.447-1-1-1h-1v-4c0-0.032-0.016-0.061-0.019-0.092C15.584,14.442,17.568,12.167,17.568,9.432   z M12,13c-1.773,0-3.236-1.303-3.511-3h7.021C15.236,11.697,13.773,13,12,13z M8.445,9c0.062-1.468,0.422-3.093,0.653-4h5.803   c0.231,0.907,0.591,2.532,0.653,4H8.445z"/></g></svg>